<?xml version="1.0" encoding="UTF-8"?>
<svg xmlns="http://www.w3.org/2000/svg" width="512" height="512" viewBox="0 0 512 512" fill="none">
  <!-- Background -->
  <rect width="512" height="512" rx="128" fill="#0A0A18"/>
  
  <!-- Eye outer shape -->
  <path d="M256 146C156 146 96 256 96 256C96 256 156 366 256 366C356 366 416 256 416 256C416 256 356 146 256 146Z" stroke="#00E5FF" stroke-width="24" stroke-linecap="round" stroke-linejoin="round"/>
  
  <!-- C shape inside -->
  <path d="M276 206C246 206 216 226 216 256C216 286 246 306 276 306" stroke="#00E5FF" stroke-width="20" stroke-linecap="round" stroke-linejoin="round"/>
  
  <!-- Connection nodes and lines -->
  <circle cx="276" cy="206" r="12" fill="#00E5FF"/>
  <circle cx="276" cy="306" r="12" fill="#00E5FF"/>
  <line x1="304" y1="226" x2="276" y2="206" stroke="#00E5FF" stroke-width="6" stroke-linecap="round"/>
  <line x1="304" y1="286" x2="276" y2="306" stroke="#00E5FF" stroke-width="6" stroke-linecap="round"/>
  <circle cx="304" cy="226" r="12" fill="#00E5FF"/>
  <circle cx="304" cy="286" r="12" fill="#00E5FF"/>
  
  <!-- Glow effect -->
  <path d="M256 146C156 146 96 256 96 256C96 256 156 366 256 366C356 366 416 256 416 256C416 256 356 146 256 146Z" stroke="#3AECFF" stroke-width="4" stroke-linecap="round" stroke-linejoin="round" filter="blur(4px)"/>
</svg> 