<svg xmlns="http://www.w3.org/2000/svg" width="200" height="200" viewBox="0 0 200 200" fill="none">
  <!-- Eye outer shape -->
  <path d="M100 40C50 40 20 100 20 100C20 100 50 160 100 160C150 160 180 100 180 100C180 100 150 40 100 40Z" stroke="currentColor" stroke-width="12" stroke-linecap="round" stroke-linejoin="round"/>
  
  <!-- C shape inside -->
  <path d="M110 80C95 80 80 90 80 100C80 110 95 120 110 120" stroke="currentColor" stroke-width="10" stroke-linecap="round" stroke-linejoin="round"/>
  
  <!-- Connection nodes and lines -->
  <circle cx="110" cy="80" r="6" fill="currentColor"/>
  <circle cx="110" cy="120" r="6" fill="currentColor"/>
  <line x1="124" y1="90" x2="110" y2="80" stroke="currentColor" stroke-width="3" stroke-linecap="round"/>
  <line x1="124" y1="110" x2="110" y2="120" stroke="currentColor" stroke-width="3" stroke-linecap="round"/>
  <circle cx="124" cy="90" r="6" fill="currentColor"/>
  <circle cx="124" cy="110" r="6" fill="currentColor"/>
</svg> 